/* XPM */
static char *_2df57d87cf047acb156b72e24f07a28cItoZsnG6LXsM0RQ[] = {
/* columns rows colors chars-per-pixel */
"64 64 126 2 ",
"   c black",
".  c #02000D",
"X  c #150B1A",
"o  c #19131C",
"O  c #1D1A22",
"+  c #231E25",
"@  c #252226",
"#  c #292526",
"$  c #2B2629",
"%  c #2D2A2C",
"&  c #312C2E",
"*  c #36302F",
"=  c #2F2C30",
"-  c #342D31",
";  c #363233",
":  c #3A3535",
">  c #3E3836",
",  c #3C3638",
"<  c #3F3A39",
"1  c #403937",
"2  c #423C3B",
"3  c #46413E",
"4  c #4A423E",
"5  c #493F41",
"6  c #464241",
"7  c #4B4543",
"8  c #4E4946",
"9  c #504745",
"0  c #514946",
"q  c #534D4A",
"w  c #584E4D",
"e  c #56504D",
"r  c #5A524D",
"t  c #575250",
"y  c #5C5551",
"u  c #5E5955",
"i  c #615752",
"p  c #645B56",
"a  c #685E56",
"s  c #655E59",
"d  c #695F5A",
"f  c #6A6157",
"g  c #66615C",
"h  c #6B635C",
"j  c #6F685F",
"k  c #70655E",
"l  c #72685E",
"z  c #6D6661",
"x  c #6E6963",
"c  c #726762",
"v  c #736B64",
"b  c #7A6D65",
"n  c #756E69",
"m  c #796F69",
"M  c #7A7067",
"N  c #76716A",
"B  c #7C736C",
"V  c #7D7770",
"C  c #7E7973",
"Z  c #82766D",
"A  c #84796F",
"S  c #897B6E",
"D  c #817771",
"F  c #887772",
"G  c #837A73",
"H  c #8A7D74",
"J  c #857E79",
"K  c #897E7A",
"L  c #907F70",
"P  c #868077",
"I  c #8D8175",
"U  c #86817A",
"Y  c #8C837A",
"T  c #938476",
"R  c #998777",
"E  c #93857A",
"W  c #98867C",
"Q  c #95897D",
"!  c #9A8B7D",
"~  c #A08E7D",
"^  c #A2917E",
"/  c #8D8781",
"(  c #8F8982",
")  c #948B82",
"_  c #9B8D82",
"`  c #9B9185",
"'  c #9F9184",
"]  c #9C9187",
"[  c #9E9086",
"{  c #9D9389",
"}  c #9F9389",
"|  c #A28E83",
" . c #A18E86",
".. c #A09084",
"X. c #A09185",
"o. c #A29389",
"O. c #A3958B",
"+. c #A2968B",
"@. c #A59488",
"#. c #A79789",
"$. c #A1958C",
"%. c #A3958C",
"&. c #A2978C",
"*. c #A5978E",
"=. c #A7978E",
"-. c #A6988A",
";. c #A5998E",
":. c #A59A8E",
">. c #A79A8E",
",. c #A8988B",
"<. c #A99A8E",
"1. c #AC9C8F",
"2. c #A69C90",
"3. c #AA9990",
"4. c #AB9B91",
"5. c #AC9D92",
"6. c #AD9D94",
"7. c #AAA195",
"8. c #AFA296",
"9. c #B0A69A",
"0. c #B3A69A",
"q. c #B5A59A",
"w. c #B4A69A",
"e. c #B9A89B",
"r. c #B9AA9C",
"t. c #B8AC9D",
/* pixels */
"i 2 @ 7 E Q e . - 6 2 2 s y 7 5 2 , - - w w 1 r d q : - , w 6 7 p 2 # 7 Q ) w . - 6 2 5 p y 6 6 2 , - - w w 1 y d w , & , w 6 7 ",
"Q h O h e.t.7.n e E / _ *.*.' o.M K B 9  .L s E ) F B n D / K H Q d O h e.r.7.n w / E _ *.$.{ o.m H Z 9  .E a L ) D B m D / Y H ",
"! G o A ` ` 2.9.{ $.2.4.{ { o.*.K T | 9 | W b F Z A E K Y T T E _ D o Z ` ` 2.9.{ o.2.4.o.{ ] 4.K E _ 9 _ W b G Z F T I Y T Y E ",
"_ b O M Y E ) { { $.*._ _ _ $.*.o.F Z 0 ! W L b A E E E ) T E E ! v O B I E ) { { o.$._ { _ $.$.o.D F 9 ! W L b D K Q E ) T E E ",
"_ p + Z Q ` ;.;.{ _ _ +.{ $.;.*.*.o.p l ! E I I T Q ! _ ! H W W ! s @ V Q ' ;.;.{ _ { +.{ $.;.+.=.o.p k ! E T T T Q ! | W H W ! ",
"' q & P +._ ! <.;._ _ +.$.*.*.o.o.5.g v ! E Y I E T E W T W ! _ ..q % I $._ ! ;.;.! _ $.$.#.;.o.o.6.h v ! T Y H Y E E T E W W | ",
"#.h > _ -.E I Q +.#.5.5.5.$.#.$.<.-.r Z T Y I I E E ! W _ | #.#.<.h , ) -.E I Q +.#.<.5.5.*.;.#.=.*.r Z E Y I E Q ! W W ! | #.*.",
"A y 2 B Q Q ! _ ,._ c Y 5.q.8.q.<.g ; H Y E ! T Z b a r p k b A A i 2 B Q Q ! _ <._ c I 5.q.8.9.4.d ; F I E ! H Z b h y p k b G ",
"X o $ ; < 2 4 w s $ & - w B B D e % > 4 r 0 i 4 7 : = % = @ O o X o % * 2 2 4 q s $ = = e B B Z r & : 4 r 0 y 7 7 : % - $ @ O O ",
"g n e e u v x g x x - , , < 7 < 3 3 : q r l Z I T T < 8 x n N V g v e w u x x z x x - , > < 8 < 3 4 : q y l Z S T T > 8 v n V N ",
"/ Y J V V J U J ) U 6 6 B Z G B M x h g B T R ^ ..^ e q U Y N U / / J V V J Y J ) J 5 6 M A G B M j g h B T ^ ^ ~ ~ r q J / M G ",
"C C n n V V G V U C y - p k v B v v h x B I M A ! ! v 6 x x V C C C v N D V C V U C y - p x v M v x j j B A M Z R ! l 6 x x C C ",
"n x B V B D G C U C 8 < e g g g x N V M v h v B S ) i 7 N V J C n x B V D B G C U J 7 < t s g g v N V B v h v B U ` y 7 n C U V ",
"N V D G B V G G U ( 8 < u v v N N N N N N B V V B ) p 7 x G G n B M C G B D G C U U 8 < u n N N N N N N N B V V N ) u 7 x V G N ",
"G G D B C J U C / N 3 3 h x g x B B B c x x l h P ) e 3 g x G C J G G B V U J G / N 6 5 z x g v B B M v h v h x P Q e 4 g v G G ",
"B B V B C C B N U u < 2 y g p h g M N h s g g h Z x 6 y x u B n B B B B C V B N U s < 2 t u s g g M M g g g g h Z x 6 y x u N N ",
"6 < 8 7 3 ; % # : 2 ; @ + ; : ; & ; ; < 2 > 2 < $ + - q s 7 5 q 3 < 8 4 3 : % # : 2 ; @ @ ; : ; % * ; 1 2 : 2 1 $ + - q s 7 2 q ",
"j V p % < B Z v b v v h s p h y r s e * > g z z d x n m m c g y h B g % 2 M Z v v v b h s p h y y g e * 2 g z z h z n m m c z y ",
"Y Y I < h Y Q I J Y K Y H J C C G Y P : 7 D v n B B F K K G D C Y T G 1 d T E E H Y Y U I G C C P Y S : 7 Z v v m V K K K D V C ",
"G B Z 7 f I S Y E K G G V C V C G Y A * 2 n M m n n G G D D D G P B G 7 h I G T E H G C C C C C G U A ; 3 v B M m n D F D D D G ",
"Z M Z e 4 I V B H G J J G G G G C Y v & 2 p S S Z v m F A H H Z V M A e 8 I B M H G J J J V C G C Y v * < p A S Z v B F F H H G ",
"I T ! M & S I S I Y G V G G G F G H r ; 2 Z T H H A Z F S S H T I I ! M % S T G Y K G D D J G F P P r ; 3 Z T I F A M F F F G T ",
"R T T M : l T H M V J G Y Y T z h E r : 0 M A I T R T S H T R T R I T M ; l T H b G G K Y K T c g T r : 8 M A I E E T L H L R R ",
"f i 8 4 : & 4 4 : 7 u s u s h w 7 M 8 $ 3 0 0 r k l Z Z Z H T S f p 0 4 : % 4 7 : 7 u s i s c w 4 M 8 # 3 0 0 r h b b Z A L T S ",
"1 : * * # ; > < 3 > # % 5 5 5 9 r w r w < , 8 x z q = @ # & ; : 1 * * * # : : < 2 1 $ $ 2 5 2 9 w w r e < : 8 x h q % @ @ ; ; : ",
"i y q 8 u g h g f g 3 2 m  .) K Y Y Y Y g x Y ( ( ( e 2 G M N p r i q 8 y h j h g g 6 2 m  .) K K Y Y Y z x / ) ) ( e 2 V M v p ",
"x h l N x j j j x x 6 < Z _ Y Y Q ! E Y B Y Y G G Y u 6 ^ ` Y v j j j N x h h j x v 5 2 A _ T E _ W T Y N U Y G J Y u 3 ! ' T N ",
"N M I T j u n g B N 6 q ' _ E Q A v B M V G F D G U g < M h h v M M I I x u N g N n 6 q | _ E / A v B B B G F F G Y s 2 b v h x ",
"M I P P M y v g B D 8 r Q I E I M Z B Z H I F F Y Y i 6 m M l h l I P P M u v h B D 7 y Q I E I Z B B V F K F G P E y 3 N M j h ",
"M P I ~ I u j j c G q p G M v B D D Z F Z G D F ) _ w a A S I S M I I ~ I u x h v G q p G m v B Z Z Z F F D A F Q _ e f A S I S ",
"^ ~ T l r p j B B G q q V B H H I T E H s K K W  . .9 r f h l S ^ ~ T v y p v N B G q q V B H H I T E H h K K K | @.8 r f f M A ",
"f f > % @ > 4 f g r > 2 e u d r y h h 9 < y H F D Z 1 2 l f 7 4 f a > & O < 8 s h r : 2 q p s r i h h 9 2 i S F D B > 3 l f 4 4 ",
"r > @ 8 T ) q   + 2 , 5 i w 2 2 - - O & w 9 : w s 8 , & ; q 6 8 r : # 4 Q Q q   @ 2 2 5 y e 2 2 - - O = w 9 ; w p 9 : - : q 6 7 ",
"Q h o h r.t.7.n t E / _ 2.*.{ o.B F Z 0  .L s T ) D B m D / Y F ! f o f t.t.7.N w / E _ *.*.o.$.B Y Z 9 | W a E ) D B n D E Y G ",
"! G o A { ) 2.9.o.$.4.4.' { { <.K E ` 9 | W Z F Z A Y K Y E T T ! V o P ` ` ;.9.{ +.<.5.{ _ { *.K T _ 9 _ W b F Z D E Y Y E E E ",
"_ v O B Y E ) { { $.*.) _ { +.*.o.F F 0 W W H b F T Q T ) T E E ! M O B P Q ) { { o.*.) _ { $.*.o.D F 9 ! W L b F T E E ) Y T Q ",
"_ p + Z Q ' ;.;.{ _ { o.o.+.;.+.*. .p c ! E T T H Q _ _ ! H W W ! p + G ! ` ;.<.+._ ` +.{ $.;.$.=.o.p k ! E Y T T Q ! _ W H W ! ",
" .q % I +._ ! <.*._ _ $.+.+.*.+.o.6.h v ! E Y H E E E T E E ! | ..e % U +.! Q >.*.! _ $.*.#.*.o.o.6.h k ! T Y H E E E T E W W | ",
"-.k > ) $.E T W +.,.<.4.5.+.;.+.<.,.r Z T K Y T T ! ! E ! | -.+.,.h , ) -.E T Q +.#.1.5.5.+.;.+.=.*.t G E Y Y T E Q ! W _ | #.#.",
"S r 2 V E Q ! _ ,._ c Y 5.q.8.q.=.d ; G Y T ! L Z b h r s h M G A i 2 B Q Q ! _ ,._ c Y 5.q.8.9.4.d ; F T E ! H Z b d y s h b F ",
"X o % ; : 2 6 r g % = - t B B Z r % > 7 r 0 i 7 8 : % - % @ O X X o % * < 2 4 w s $ = - e B B Z r % : 4 r 0 y 8 9 ; % & % $ O o ",
"g v t e u x x g x x - : , , 7 2 4 4 : 0 r h A H T T > 8 x N V V g v r q u v x g x x - : > < 8 < 3 4 : q y h Z S T T > 8 x n V N ",
"/ ( G B V U Y J ( U 6 6 M A G B B z h h M T ! ^ ^ ^ e q U Y B U ( Y J C V J U J ( J 5 6 M A G B M x g f M T ! ^ ~ ~ r q U Y V C ",
"V C N N V V C B U C t ; s v v b v x h z B S Z Z ! ! j 6 x v N C C C N v D V C C / C y - p j v M v v j v M I Z B ! ! l 3 x x V C ",
"n v B V D B G D U U 7 < r g g g x B B B v h N B I Q y 7 N C J C n v B V V Z G G J C 8 < t s g g x M C M v h N B U ` y 6 N V J C ",
"V B V G B G G G U U 8 < u v v N N N N N M B B B N ) g 6 x G C M N B C G B V G C U / 8 < u n N N N N N N N B B V N ) u 8 x G G N ",
"G G V B V U J G Y N 3 3 x x h x B N B v h x h v U Q e 7 g v G V K G G B V U J G / N 6 2 z x h x N B B v h v h x G Q e 4 s v G V ",
"B V V B V C N N U g < 2 y u p g g B v h g g g h V x 3 y x u N N B B B B V V B N U u < 5 t u s g g M M g g g g h A x 6 y x p B N ",
"6 2 8 6 3 : % $ : 2 ; + @ - : ; ; * * 2 > > 2 , $ + % q s 7 2 w 6 2 8 3 3 : % $ : 2 : @ + ; : ; * * ; < 2 , 2 , $ + & q p 7 2 q ",
"h B s $ 2 M B v v v b g d p h i r g r * < g z z h v m m m c z t h B p % 2 M Z v v v b g s p g p r g e * 2 g c h g c b m m c z y ",
"Y I H 2 f T Q Y I Y Y Y U J G C C Y S : 7 Z n n m V K K K G G B Y I I > f I E Y H Y Y U Y G C C C Y S : 7 B v v V V K K K F V D ",
"G B G 7 h I A T Y H G G C V V V G U A ; 2 v M B m v D F D D G G G B G 7 h I F T E H G G C B C C P Y Z ; 4 v M B n n D F C D V J ",
"Z B Z e 4 T Z M H G J J C C G C G U v & 2 p G S Z v M F G T S Z A M A e 8 I B M H G J J G C G G P P v * < p A S M v b A F H H Z ",
"I I ! M % S H S Y H G G C G G H G I e ; 2 Z T H H D b F F H F T I I ! M % S T G K Y G G G G G F S P e ; 3 Z T I H A Z F F F H T ",
"T T L Z : l T I m D G U Y Y E l h T r : 9 M G I E W T L H H R R R I T M : k T I m Z G J Y Y K c g Q e : 8 M A I E ! T H H T T R ",
"f a 9 3 ; % 4 8 : 7 u s y g l e 7 M 0 $ 3 0 0 r z v Z b A S R S h p q 4 ; % 4 7 : 7 u s i d k t 4 M 8 # 3 0 0 r k v M Z Z S R S ",
"> : * * $ ; > > > > $ $ 2 5 5 7 w w y e < : 8 x g q % @ @ * * : 1 * * * # : > < 2 < $ $ 5 5 5 5 t r t e < ; 8 x g q & @ @ - ; : ",
"y y q 7 r h x g h h 6 2 m  ._ K Y K K E z x U ) ( ( e 2 A M N p r i e 7 y g j f g h 6 2 m | ) Y K Y Y Y h x / ) ) ) q 2 G b N p ",
"j h x N v j j g x c 6 < D _ T Y Q W T Y N Y / G P U u 3 ! ^ T M l h x N x h x g x x 2 2 Z _ Y Y W ) T Y N U E G G Y u 6 _ ! T v ",
"N M I E x u N h n n 7 q  ._ T ) A b m B B G G F P Y s 2 n j f l M M I T x u N h n m 7 q  ._ T Q F b B B B G G F G Y s 2 M x h v ",
"M T I A N u v h B G 0 r E K E H B B Z Z H K F G P Y u 6 l M l f M T P P M u v h B D 8 y E I E I Z M B Z H H G G P Y y 3 N M l h ",
"M P T R I p z h z G q s F m v D V D Z G G D D G Q _ e p P I T P M P I ! I u x h v G q p G B c Z Z Z D G G F D F Q ~ r a G S I S ",
"! ! T l r p v m B G 0 q B M H G T T T H p H E E  .#.0 r f f l I ~ R I l r y x B B G q q B B H G I T E F s F K Q | o.8 r f f M Z ",
"l f > * ; 7 q p h y < 3 u g h y i k h 7 5 p F F F A 1 3 l l 4 4 l f > * : 8 q p h r > 3 y g h y i k h 9 7 p F F F D < 3 l j 0 4 "
};
