/* XPM */
static char *_c45ae39cbe64661b1ffac245248f5c8UnBjdfFEIZdI8pXm[] = {
/* columns rows colors chars-per-pixel */
"64 64 107 2 ",
"   c #020306",
".  c #0E1215",
"X  c #0F1318",
"o  c #111517",
"O  c #121619",
"+  c #161A1D",
"@  c #181C1E",
"#  c #171D21",
"$  c #1A1E22",
"%  c #1D2225",
"&  c #1F2528",
"*  c #1F282A",
"=  c #202527",
"-  c #21262A",
";  c #242A2D",
":  c #262D31",
">  c #282F32",
",  c #273133",
"<  c #2B3235",
"1  c #2E3539",
"2  c #2F383B",
"3  c #30373B",
"4  c #323A3D",
"5  c #353D41",
"6  c #383F43",
"7  c #383F44",
"8  c #374043",
"9  c #364144",
"0  c #384043",
"q  c #394044",
"w  c #394144",
"e  c #384145",
"r  c #384244",
"t  c #394244",
"y  c #384345",
"u  c #3A4245",
"i  c #3A4146",
"p  c #394246",
"a  c #3B4246",
"s  c #3A4247",
"d  c #3B4247",
"f  c #3C4347",
"g  c #394447",
"h  c #3A4446",
"j  c #3A4447",
"k  c #394647",
"l  c #3A4548",
"z  c #3B4548",
"x  c #3B4549",
"c  c #3A4648",
"v  c #3D4448",
"b  c #3E4549",
"n  c #3D454A",
"m  c #3D474B",
"M  c #3E474A",
"N  c #3F464B",
"B  c #3D484B",
"V  c #3C494B",
"C  c #3E494C",
"Z  c #3F484D",
"A  c #40474C",
"S  c #40484D",
"D  c #404A4D",
"F  c #41494E",
"G  c #414B4E",
"H  c #424A4F",
"J  c #434B50",
"K  c #444B50",
"L  c #434D51",
"P  c #434E52",
"I  c #444C51",
"U  c #444D52",
"Y  c #444E52",
"T  c #454F53",
"R  c #465054",
"E  c #465154",
"W  c #465155",
"Q  c #475056",
"!  c #475256",
"~  c #495156",
"^  c #485157",
"/  c #485257",
"(  c #4A5257",
")  c #4A5358",
"_  c #495458",
"`  c #4B5459",
"'  c #4B555A",
"]  c #4B565A",
"[  c #4C565A",
"{  c #4D565B",
"}  c #4D575C",
"|  c #4E575D",
" . c #4F575D",
".. c #4E595D",
"X. c #505A5F",
"o. c #505B5F",
"O. c #515A60",
"+. c #515B61",
"@. c #525C61",
"#. c #525D62",
"$. c #535D62",
"%. c #555F65",
"&. c #565F65",
"*. c #576066",
"=. c #586267",
"-. c #5B646A",
";. c #5C666C",
/* pixels */
"5 5 4 v C v q q x q q 6 5 6 6 5 4 4 4 4 7 4 4 q ; ; > < , , 2 1 , , , , < : < < < < 1 q S 5 7 7 7 x x x x x j 4 C x j j j k 9 8 ",
"5 5 5 f L C q q q q q 5 6 5 5 6 7 4 4 4 4 4 4 3 - 3 < < , 2 , , , , < , , , > < > > - 5 T 5 5 5 5 d x q x x C 8 9 j k x j 9 8 5 ",
"5 6 6 4 4 G j j j q q 0 5 6 6 6 7 5 4 5 4 3 7 3 - 3 > > , , , , , , , , , : > > > < % 1 _ 5 5 5 5 5 9 9 v x v 4 q q j j q q 8 8 ",
"5 5 q 3 < C j x x j q j q 6 5 q 5 5 7 7 3 3 6 3 = < > < , , , , , , , , : : > > > < - 1 ^ 5 1 5 5 5 5 9 q 7 q 3 5 q 5 q q q 0 5 ",
"6 6 q 4 ; j x j v v 7 7 0 6 5 0 7 7 4 < 4 5 9 1 ; f * : , ; , , , , : : : , < : > < & > C 5 < < 2 5 5 5 5 5 5 > 4 5 5 6 8 5 q 5 ",
"6 5 7 3 - x x q x 7 5 5 6 5 5 3 3 < > 3 5 5 v 1 - S - - ; * * * * * : : ; : ; < > < < & 9 9 5 5 2 2 1 5 5 3 5 ; > 4 4 5 5 q 5 9 ",
"6 q K U $ J U x v q 5 3 1 < ; ; : < 1 3 5 7 ' 5 O U 6 ; , : * * ; ; : ; : : < < 1 5 1 & 5 5 < 1 1 3 5 3 3 5 v ; : 6 5 4 5 5 q 5 ",
"3 1 4 v % 5 : % $ $ # o . O + = $ $ $ $ - > 5 2 O 4 < - % @ # % % % * * % % % - ; $ X X # . + + $ * ; - $ - - $ ; > - ; - $ : , ",
"j 4 8 9 9 4 < 1 4 5 7 A A 4 6 @ 2 d 5 d d 4 1 5 5 4 5 4 5 4 5 5 9 5 + < 4 2 2 < < 2 1 2 5 5 1 5 < < < : < & * * $ = % $ = 7 5 f ",
"W W W W } ..` ` ` ` ( ) { &.{ 5 ' *.C _ U V x x C C C J L _ W _ ` $.* x ;.o.] W R _ { ..$...+.+.$.$...L v 5 1 , > > 3 > A O.( U ",
"k k c c x x q 5 1 3 3 3 3 X.$.S } C 5 9 9 g x V v x x C x x x x L ) ; q ..c V k c k j k 8 5 5 5 5 9 5 5 5 5 2 , ; : : 3 S C 4 q ",
"c k C c c q 9 5 4 4 4 4 4 3 ( S C V 5 9 9 x V V V C C C C Z J J J R 1 9 R k V V V V k j k k 5 5 5 5 5 5 5 8 8 8 3 : ; : 4 j x x ",
"k V V V j 8 9 4 4 4 4 4 5 4 U S C v 5 9 8 k x x x Z C x V C U U U L 1 v U x V V V k k k k 8 9 5 5 8 5 5 9 9 9 k j 2 1 < < 4 j j ",
"k k V k 0 5 2 4 4 4 4 4 4 4 U v 9 9 5 C 9 8 x x C V V C x Z _ U 5 1 ; q x j V c k k k k k k 9 9 8 8 5 5 9 9 9 k j 8 k 1 ; 3 j j ",
"k k k k 5 4 4 4 3 4 4 5 4 4 S 4 5 5 , 2 x j 9 x C c C x Z U _ 2 * 8 1 1 j j c k k k k k k 9 k k 9 q 8 5 9 9 9 9 k j 8 < ; 4 9 j ",
"k k 8 4 4 4 4 3 4 4 4 5 5 6 6 > < 1 < < < 5 5 5 x C C c Z _ C * 4 j 1 ; S v j j k k 8 k 9 k 9 9 9 9 5 9 9 9 2 8 8 8 j 1 - 4 5 k ",
"k 8 k 5 4 4 4 8 5 ; : < 5 5 : - 5 7 5 5 3 3 5 5 9 x x V C W < 1 5 C 5 - S L Z Z x c x q j j v q j 9 5 9 9 9 j 5 9 x x 5 - v d 5 ",
"* ; 2 3 5 k j 2 : - - $ - $ - # 5 7 5 > ; ; $ # * * : : 5 5 * 5 5 5 $ : < & 5 1 1 5 2 4 9 5 5 3 5 1 < 5 5 5 5 5 < : & % % < > & ",
"< 2 4 4 , = @ X # $ $ - ; - : > 5 3 3 > - = 3 > 2 2 5 5 1 5 5 5 5 1 > 3 5 1 < : , O ; ; * % $ % $ & ; # % * * O : < < : < < < 4 ",
"V W W o.=.o.o...| 7 | %.} ^ 7 H T ^ H A 5 5 &.O.+.Z C C Z W U ' #.#.#.O.O.O.O.( ..8 < C 5 j j 8 5 x 5 ; 2 9 2 + x ;.W j A A Z Z ",
"1 3 5 5 A A U U } A | ' 5 5 5 7 5 5 5 5 3 4  .` 9 9 1 9 5 5 5 d 5 1 5 5 5 7 7 7 W 0 < q 1 : > > , 1 : < 5 5 2 1 W +.x c x 8 4 3 ",
"3 5 3 3 3 3 3 1 7 7 7 5 : 5 7 5 5 d 7 7 3 3 ^ A 5 9 5 9 5 9 9 5 1 < 3 3 5 1 5 5 x 5 4 1 ; : : : , : 5 9 5 , 2 1 L W k c 6 j 0 4 ",
"3 3 3 5 5 5 5 5 7 5 * x Z Z 5 5 d d 7 7 1 > A A 9 9 9 5 5 5 5 > < < 1 1 1 2 5 5 q q 2 2 : : : > < ; 5 5 , 1 1 2 x R j x q V 5 3 ",
"3 3 1 5 5 5 5 5 7 < 7 } ^ 5 5 5 9 d 7 7 > > A v 5 9 , 5 , * , < < 1 1 1 1 2 4 5 5 3 1 1 : : : < < : 5 1 2 1 1 1 4 9 x v v v 4 3 ",
"3 3 5 5 5 5 5 5 5 ; 5 K v 5 5 7 d 9 l 5 : : 5 5 4 1 2 < < < < < 1 1 1 1 < 2 5 5 4 3 < < : ; > < ; < 2 2 < 1 1 1 2 8 x x V 5 4 2 ",
"3 3 3 3 5 3 5 > 6 ; > A 5 5 5 7 9 d 9 5 : : 3 5 1 < < , > > , < 2 1 2 1 2 2 5 5 3 ; ; < : : > ; , 9 < < < 1 < : : 5 q x q 5 4 4 ",
"3 3 5 5 5 5 4 6 A ; > A 5 5 7 v x 5 C 5 : - 1 1 5 < , < , < 1 1 1 1 2 4 5 5 5 5 3 - ; 1 ; , : ; 4 2 , < 2 2 - = - 5 q 5 4 7 4 4 ",
"5 3 5 3 3 5 6 6 T > = Q Z 7 7 7 Z U U , > - 5 Z < < 5 < 1 1 5 5 7 q x Z C Z v 5 < ; ; 4 < < ; < 2 < 2 4 j , = = ; v v 8 4 3 3 3 ",
"- , ; ; > > : : 5 ; + A 7 = - - > 1 > & > : 5 1 ; > ; * - : : > , > : : > : 1 5 = +   @ O o o % ; * * 1 ; o @ . O % + % - = $ = ",
"5 5 5 > @ $ > > > ; 5 7 > < > 5 < > < 1 < < < : ; $ % : 3 < < 1 4 4 5 5 5 5 3 5 V j v v A A q < ; ; : < 3 5 5 5 q q f ; $ < 3 3 ",
"A ( ( X.5 > H 6 5 5 5 7 7 7 7 7 Z Z x l x l 5 x 5 : *.*.&.o.o.o...} } } } ` } } o.o.o.*.o.X.X.o.( W $.W ( L U { { } ( v ; 6 A S ",
"3 5 3 H H 3 A > > > > > 1 1 1 > < > < 1 > : & 1 5 < O.U x x 9 5 5 5 9 5 5 5 5 5 3 2 3 3 3 4 4 { 4 W o.9 4 4 4 3 4 5 6 6 3 3 3 3 ",
"0 4 4 t k t 9 , 2 2 2 2 < 1 1 < < < 1 < : ; ; ; ; 2 ` j q j 5 5 5 5 5 5 d 5 5 5 5 4 5 0 4 0 t H 1 [ H 3 4 4 4 4 0 4 0 0 7 5 3 3 ",
"4 4 4 4 0 t 4 , , , 2 , < 1 , < , < : : ; ; ; ; & 1 V 8 5 5 5 0 5 5 2 < 1 5 2 2 4 5 4 4 4 4 4 A 1 H H 4 4 4 4 4 0 4 3 5 5 5 3 5 ",
"4 4 0 4 2 4 4 < 2 2 2 , < < , , , : : : , ; ; ; ; & : < 2 3 4 4 5 4 2 5 5 3 5 3 4 4 2 2 2 2 2 v 1 t A 4 4 4 4 4 4 5 4 5 3 7 4 4 ",
"4 0 4 4 < < 2 < 2 , 2 , , , , , , : : : ; ; - ; - = 3 < ; ; = ; 5 2 3 2 1 1 5 5 2 2 2 2 2 4 2 4 > 1 t 4 4 4 0 4 4 0 4 4 5 4 4 7 ",
"0 0 0 4 4 ; < 2 2 2 , , , , , , : ; : ; ; : ; ; ; = f U v S U > ; 3 4 3 2 3 3 2 1 1 2 2 3 1 < 1 ; ; 4 4 4 4 4 4 3 7 7 3 3 4 7 7 ",
"0 q 6 6 3 = , < , , , , , , , - : ; ; ; : ; - ; , @ 5 v f A S ( 9 < 4 3 1 2 1 1 1 1 1 2 1 < 1 1 = ; 3 3 3 3 4 4 3 3 3 3 7 7 4 7 ",
"f v v A 2 @ ; < < 2 2 2 < < < < : ; : ; : ; - : 1 @ 1 6 6 6 0 v A 3 ; 4 4 3 5 1 3 2 1 1 < 1 , 5 ; = 3 3 4 4 4 4 7 7 3 7 7 7 7 7 ",
"> 3 3 4 , @ ; , ; ; * * % & & ; ; & ; - = = - , ; O - ; > , < < < < + - 1 < > < < ; - - & - % 1 < = < < > > > > - > > > > 3 3 > ",
"> > , ; ; > ; ; , ; , < ; , & X @ ; ; 1 , 3 < ; - - > < ; 1 , < < < < < ; @ o o @ @ % = * * ; : ; = = & < , < < > > > 3 > > > 3 ",
"( ( [ o.o.=.*.*.*.-.$.$.{ _ R @ W *.*.$.o.o.{ H U S S S S A j ( W ..O.#.*.j ; j 0 1 , 1 < 2 4 5 t A ; , =.$...[ ( K ( ) (  .( ` ",
"0 q S S D G U G c C C V j C ` 2 ..-.G 0 v t f A V S S W W 1 G ( G S x q o.o.1 V j ; < < : : , * , A , 3 $.t 9 9 f f f 7 j j f 7 ",
"0 0 4 4 8 8 0 0 8 j k j k c W j R R , 4 0 5 0 A S S U W 3 v X.x V S j x G X.1 5 0 > < , , : , : % > < 5 _ 2 k k 7 f v A x j 8 6 ",
"9 9 9 9 0 t 9 5 8 k 8 8 V V G t [ G < 4 5 V j v S S U q 2 ..W W U S k V k ] 8 2 4 , , , , , : : ; & = 4 C 4 k 9 k k k k x j 9 k ",
"k 9 k 9 9 4 5 5 5 8 8 k k t D 0 R A < 2 4 5 5 t V S U 0 5 *.C C C C c 8 8 V 5 1 2 , 1 , > , , ; = = % < k 2 4 9 k k 9 8 k k 8 8 ",
"9 9 9 t 5 3 4 5 8 5 9 9 k k A 2 G A < 2 4 4 5 5 j S S q 2 ' Z x j V k 8 9 k < < , , , ; : , ; * = % ; > 4 2 < < c k k k 9 9 9 9 ",
"9 9 t k 5 2 k 5 4 8 9 j 9 k A < t A 2 3 4 4 5 t 0 x C v : x C x V V k j 9 9 ; ; , ; ; ; , - ; * ; = ; ; 4 < , ; 2 C k k k 9 9 9 ",
"k k 9 9 4 j k 5 5 0 8 0 j j j ; 5 7 < < 5 5 5 5 5 5 7 5 > 5 Z x V j 0 5 4 1 * < , : ; ; : * ; * - * ; % 1 < , : & ; : 8 k 9 9 9 ",
"9 4 9 9 8 t 4 8 0 j f 0 j 8 1 - 5 7 7 5 < 5 7 7 5 7 7 5 < 7 d 9 5 8 4 1 4 k % 8 5 : : ; ; : * ; ; ; , % < 1 < < , ; ; ; 9 9 t 9 ",
"2 2 < 2 3 0 4 0 4 0 0 0 0 < - = > H 5 : 1 < 1 < > > > 1 > 3 1 > ; ; : : < 5 O x 7 * , : ; ; - * & & > % ; ; ; , ; ; ; % < 4 2 < ",
"; - - ; = @ % @ @ o @ - ; @ + + - ; $ # # # $ $ $ # # o $ $ # # & - - & & * & * $ $ # # # # % $ + $ $ @ % = ; ; = ; ; ; ; , , , ",
"j 4 0 k R ..o.G @ U _ R 0 5 3 > : - 5 7 7 7 7 A A J J ^ J > K $...$.{ ( c C V k 5 Z Z Z L L v & R ..R G G R R G R G G R G R C A ",
"t j 9 j V R -.*.4 =.-.V V V A v 7 5 7 7 5 U ^ A A J H } &.5 K -.{ U j j c C V V C C C C G S C 1 $.W 4 S V c V k V 0 8 4 2 4 4 0 ",
"8 9 0 k k 0 _ _ 4 o.W j j 5 4 6 5 5 5 5 7 7 5 7 7 5 5 1 ` 5 U O.< 4 8 8 9 c V V V V C V q 8 5 4 X.4 2 4 j V k 9 j 0 4 2 2 2 4 0 ",
"9 9 t k k k R E 3 o.( j V j 5 4 5 5 5 5 5 7 5 5 7 5 5 5 ^ 5 ^ +.3 9 8 0 8 j V V V V V V x 7 4 : R 5 2 4 9 t 9 t 9 8 0 4 4 2 4 4 ",
"5 5 8 k x x L C 1 ..R j c 4 4 2 3 1 5 5 < < < 5 5 7 5 5 T 5 T O.< 5 q q v Z x j x C V C 9 9 1 : 0 5 5 < < 5 5 5 4 4 5 5 4 4 3 4 ",
"4 4 1 8 x x C d < G G j k 2 4 8 5 A v < < < 5 < 5 5 7 5 A 5 7 S < 5 5 5 q C x c x x V 9 5 5 < ; 5 5 < 5 5 < 5 < 4 0 5 4 4 3 4 4 ",
"5 4 4 5 k c v 5 ; S V 5 4 2 4 4 5 5 > < < 1 < 5 5 5 7 7 v 5 5 5 , 5 4 5 k k x c d v v 5 5 5 < % : , 5 , , < 2 5 2 3 4 2 3 3 4 8 ",
"5 5 8 9 c c U v @ R G 4 9 2 9 4 - - ; < 5 < 5 5 5 5 7 7 v 5 5 5 3 5 5 5 8 k k c d 7 5 5 4 4 > $ , , , < < < < 3 < 2 2 4 2 4 4 4 ",
"4 5 0 v v v v U + A V < 2 2 9 * ; < > > 1 3 5 5 5 7 Z 5 5 5 : 5 > 5 q 5 9 x l l 7 5 5 5 5 5 < $ , 7 5 < 3 3 < 1 2 1 3 4 4 1 1 3 ",
"- = - % = $ O $ + , : * * * * @ - = - ; - ; - - $ # $ $ $ # X $ - & - ; : : : : > > > ; $ $ $ o # ; > - % % % - % % : > ; & & & ",
"q f q < @ A S C v v v v v x 9 c 7 A J 7 7 Z A 5 < 5 < 1 < < < < < < < < < < : < < < ; = A A Z Z C S 7 J S V S - 2 v V A v 0 0 4 ",
"q q f 8 7 $.` v A V v v v v x V A A H A A v 7 v 5 7 3 < < 5 < < < 5 , 5 < < < 5 3 4 3 7 O.T J C A C U U S U U > ` O.S S S V v v "
};
