/* XPM */
static char *_835bc30325e4367888b65142d30d64f1O8nxyqHnTMDaabN[] = {
/* columns rows colors chars-per-pixel */
"64 64 21 1 ",
"  c #1E1711",
". c #251C14",
"X c #281F16",
"o c #2A2017",
"O c #2D2219",
"+ c #31261B",
"@ c #36291E",
"# c #392C1F",
"$ c #372B20",
"% c #3B2E21",
"& c #3E3023",
"* c #433425",
"= c #483727",
"- c #473826",
"; c #493927",
": c #463728",
"> c #473828",
", c #4C3C29",
"< c #503F2B",
"1 c #52412D",
"2 c #564430",
/* pixels */
"&*,,;;;;,<<*#<;<,<<,,;,<%#<,;<;;&#<;<;;;<<<,=;*%<<<;%%,,,;;>,-;;",
"+*;**==**=*+*;*-***====>@=;*&---@&;&***;*===**@<====+;,*==::=:-:",
"X**@##%##%*O*=@#@@##%*#@X;>##&#&o&;#####%%*%%*X=*@#*O;>@@%%%&%&#",
"O-=###*#%%*+*=*%#@#%%%#*+*>%&&&%o*;#&&##%%%**%O==$#*O;>#%&*&&%&&",
"O-;#%%#*%%*O*;%%$##%####O&*#&*%&o*;+##&##*%%&*+;*#@%X*=%&*&&&&%%",
"o*=#%##%%#$O=;$%%%$#####o**##*##o#;+##*&%#%*#&O;*$$%O==%%&%%%%%#",
"o--%*%*%%%&O=,%%%%#**##*O*&+@##@o#-@&*#****&#&O;=%%*O==+%%#%&%%&",
" #@OOX.XXXX ##XOXXXOXXX+.#O..ooo ##XooXoOooOXX @OXXX.@+.O..XOXoO",
">=,#;;;<<;;;,,;,;,,;%*,;,;;;;+*-;;#*;;;;<;;+&;<,,O>,,>,>;>;>,,>;",
"***$<%******=**=****o,<---*&*+-&##o<*-***==o;;*=;O1:*&=*#*&*=::&",
"$%%$=$%%+@##*%%*####o;*%&%%##O,###o<###&###.;*%#%o:%++@+@#%%$%%$",
"%*%#<%%@@@#$%$*%&%%&o,;%&&##*+1*&#o<*#*&#@#o;*&&&O,%%**%:&&%&&&&",
"*&&$<$%@@%$$%$$#&##&o<;+@++#&O,*&#o<&#&#%@@X<*@@&O,:&*&%%&%&&%%&",
"&%%$<%*$##$%$**%&&&&o;;#@@###o1*##X;###&&#&X;*@#&+1*%&%%%$$%&$$&",
"&*&%<**#%$$%%%%*##%*o;;#####@o,:##X;&###&%*o<;#&&o;-&%&&$%&&:&&&",
"XOXO#XXXXXXXOXOX..Xo +o... .o +oX. #oXooXXo.@oXX..&OOOOO..OOOOOO",
">,,,,<<>>,,,,,#-;----;-;===;--=*-;;@&1;1-;;1,@*-,;;;;=,,,;:@;,,;",
"::==>,>:&=>-;=#1=;:=**:-=>:&-*--**-+1;&*&&&&&O,*:&:-::;==,:&,&--",
"$$+$**$$@@@@@O@,+@#@&&&$&$$$##@%@+@o;&#$#@##@O;%$+#%%%%%%%@#,+%#",
"%%%%$%$+$%#+%%+,##%%&&&&**%%##&&&#&o;##$%&#&#+1%%&&&%%*%%&%#,$&&",
"%$$$%*%$%$+$&%#1&&&&&&&&&%&%##%%#&&o;>$&&&%&&+1&&&%&%%%%#&##,%&%",
"*$$%$%**&$$%%+@,$&&&&&&&*%%%%@%#&#&o1&#&&#@&#O1&%%#@@%%%&&+#,@%&",
"%%%&%%%*&&%&&$#1&&&&&&:&&*%&&#%*&#&@1&&&&%%%#+,&&&#%##&*&:+#1$%%",
"OOOOOOOXoX...XO+XoOOOO+OOXX....OOoo.%Oo+OoOooo#.ooooOOOOO..@%o.O",
"<,>,,%&--;;>,::=:*,;;,+*;-:--*-;;,;---;&+-;,,;-;;;;:@,,;;;-,,,;>",
"****:O,1-;>,::*:*:,::&+1;:*&::;,;;-&*-;&&1*-:*%::&:+#,&**:**&:=:",
"$#%%&o-:%%*%$$$$$+&$##O,@###%&%#$&&$##&@&,#%@@@@@+#+#,+$#&&&$&%#",
"$%%%&O-:%%%%%%$%$$$&&&+1&&&*%##+$&&#&#&+#>@%#%@@##&+#1%%%&&%&%%%",
"$%%$$X=:%&&%$%&&%$$%&%+1##&@@@%&%##$@@%+&;%#%%%%#$&O&,$%$$&$$$&&",
"%%%$%X:*%%&%%$%&&&&$$$O,@@+@##%&%#$$@%&+&,#&@%%%&#&+%>$$$$$&&&&&",
"&**%%O>*%%&*&&&***&&&$+,#&#&&##&&&&%%%*+&,%%%&:&:&&$%,%&&&$&&&&&",
"OOOOOX$O.OOOOOOOOOOoOoO$oOOoooooOOOXOOO.+%O+OOOOOOO.$$XOOOOXOOOO",
",,,,,>>:,,,&%,>,;,<;;<<<,;*#;;,;=>>;+;<,1;;1;11,1,1,,:1#&1-1,;;,",
"::>::::::::+>,*:**==**=;**O->===*:**+1=;>:&;-*;;--:,:::+,,:*::-*",
"$$$$$%%&##&O>,$%%@#**@##@#.-;#%%+##@@1%%$$%%&&&#%#&&&%%o;&%&%$%#",
"&%%%&&&%$%:+->%&%*##%&%###.=;%%*%&**+1%%&%%&&&&&&&&#&$%o::$&&%%&",
"%&%%&&%&%%&O=>%%@%@$%&#&#%o;,*%%&&&%+1%%%&%&%&%%%%&$%%&O,*&&&&%&",
"%$$%$&&%%%&O;>$%%%%%&##@#&+;>%*%&&&%+1%&&%%$%&&%%%%&%$&O,*&&&%&%",
"&%%$$%&&&%&O*=#*%***&&&%%*o;=%*&&%&%+,&*&&%&%&&&&&:*&&&O,*&&&&%&",
"OXXOoooXoOo ++XXXXXX+o.Xo+ @+oOOOoo.o#OoooooooooOOoOOOO.&OoooOOO",
",,,>$,,,,<,,,><;=<<**<;;;-;;=-,>---;1&111>>1%&1>;,,;;,<<1,,,,--,",
":&&%$,****:=**#**==+=;=;==-==*,>::*:>&&&&>&1@*;&**:=**=;:::::::*",
"&&&$$<$%$%$*%#@@@@%+=$%%%&%&@@%:&###%&%$+$$&O;;%%###+#%%&%%%$%%&",
"&&:$$2&%#%$%%%%#@$%X;*%*#*%##&*&:&&&&&&%&$&&O;;$$%*##*%%&%$%%%%&",
"*&&$$2%%#%%$$%$$@@%O,*#*#@#&&&&&&&&%&%%%$&%&o&>@%%@%#@#+#@@&&%%&",
"&&&+$,&%$%$*%%*$%%%+;*%#%##%%&&%&&&&%$&%$$%&o;>%**%%#####@##&%%&",
"&%#+@1%$$$%****%#%$+<*%*%&%#&%%&&&&&&&&%$@%&+1;%*%&*%#%#+###%&&&",
"....o+...XXXX.XXXXXX@+XXOOOOOOOOooOOO+OOooo+o@+OOOXOOXXX.X....XO",
"*,;;;;--;;;=--->=,=,==;%*;,;;>,>;-:@,,>==,,=<=<@%,,,;>,,,;=*--;@",
">,&*&:****=&%&&:***%%&*+<;=-=:-,=*@*2*:*******=+,,:==:=-==*:*&*O",
"-=+@%%@$##@@O++@@%$@%%&X;&@#@@%%@@O%,%%$##$$@@%O,%@%%&%:&#+@##@o",
">>%&%$+@#&@#$+%%@%$%**&O,=%#@%%*#%$%,$$$%%%%%**O>*@%**%&&%@+@#&O",
",:$&%@$%%%$%&$%$%%*%#%*O,:##%%%%#&+#,$&$#%%%***O,-&&&&&&%&%%##%+",
";-%%$@%&%%$$%%%$%%%%%@*X;:#@#%##&%O&,$&&$%#%##%X,:%&%%%%%&%%#%#o",
",>::&*%%*%%%&%&%%%%%%%*X,-%*%###&&+&<%*%***%*@*O,-&%##&&&&&&&%%O",
"#+OOO+OO+XOOOOOO++XOXX+X@OOoXXO.oOo#$X+XXOOXXXX.&OoooooOOO.OOX..",
">;,,<,;@%;,,,,=+*;;;;;;<;;,;,;;,,;1,,;,#*;;<,;;,;<<<;;,#&1-;,,:1",
"=*==>,;+,,=,>,=X;;***&**==;-=;*;--::::*+<<;===**;*-****+,1::-*-:",
"@@@###%O<=%%$$@.;%@######%#*%*#%%$%&%&%o;;%&@##+#@##&#%o,:%&&%#$",
"%&%#%%%O,*#$%$$.;&@%%*###*%%##@%&%&%##$o;;#%@#*###&#&&&o,:#$&$+%",
"%&#####.=*%$#%%X;*@@%#%%###@###&&#&#++&o;*%*#*%&&#%###%o;*++$%%%",
"%%%##@#X;=$@#@#X;&@@#@#%###%&#%##&%&$%#o;-#%%%*&&#%&&#%o-&++@%%@",
"&&%%#%&o;=%**#%X;*%%##%##*#*&**&#&#&&&&o;;####&**%&&*##o,*+@#:%%",
"O+OO+OO.@oXO++X.@+oXX+oX.XXXoOoOoooooOO.#++OOO+++++++oo.#+.oOOO+"
};
