/* XPM */
static char *e35eb9dd99874dd2a522c16fa28cc793T2tV6UoTplAaqdgN[] = {
/* columns rows colors chars-per-pixel */
"64 64 98 2 ",
"   c #2D0400",
".  c #350200",
"X  c #3C0101",
"o  c #3D0A05",
"O  c #3F0D09",
"+  c #3E130B",
"@  c #3E1D12",
"#  c #3D2115",
"$  c #3F281A",
"%  c #420101",
"&  c #490304",
"*  c #430B06",
"=  c #4A0F06",
"-  c #490608",
";  c #450D0B",
":  c #4B0E0C",
">  c #510D0D",
",  c #580C0E",
"<  c #441207",
"1  c #4A1106",
"2  c #45130C",
"3  c #4B130C",
"4  c #46190C",
"5  c #4B190D",
"6  c #501007",
"7  c #51150D",
"8  c #52190D",
"9  c #470F11",
"0  c #4C0E12",
"q  c #530E11",
"w  c #590D11",
"e  c #461411",
"r  c #4B1312",
"t  c #441B13",
"y  c #4B1912",
"u  c #521212",
"i  c #591313",
"p  c #531A10",
"a  c #422117",
"s  c #45251A",
"d  c #4B251C",
"f  c #442B1E",
"g  c #49291E",
"h  c #50251E",
"j  c #4F2620",
"k  c #472C21",
"l  c #4B2C22",
"z  c #502721",
"x  c #512D24",
"c  c #4D3226",
"v  c #4E3529",
"b  c #4D3B2C",
"n  c #513126",
"m  c #53352A",
"M  c #5A372E",
"N  c #533A2D",
"B  c #59392F",
"V  c #553E31",
"C  c #5B3D32",
"Z  c #603E35",
"A  c #4D4030",
"S  c #554233",
"D  c #5A4336",
"F  c #5C4539",
"G  c #554838",
"H  c #5D4A3B",
"J  c #614137",
"K  c #62463A",
"L  c #6C463F",
"P  c #624B3D",
"I  c #6A483F",
"U  c #70453F",
"Y  c #61503E",
"T  c #5F4F40",
"R  c #535641",
"E  c #5D5341",
"W  c #5C5E4A",
"Q  c #644E41",
"!  c #6A4D42",
"~  c #645344",
"^  c #6A5446",
"/  c #635947",
"(  c #6D5847",
")  c #6B5648",
"_  c #645C4A",
"`  c #6C5A4B",
"'  c #715549",
"]  c #715C4D",
"[  c #6F5F50",
"{  c #735E50",
"}  c #64634D",
"|  c #676551",
" . c #6C6452",
".. c #6E6956",
"X. c #726352",
"o. c #786254",
"O. c #706956",
"+. c #766F5C",
/* pixels */
"_ C D C C n m n V S v N V N H D D D F V V V S C F H F P P D m _ R M F K P D F P H D H F S V N V V S D H D D G P Y H D P K K C  .",
"V X X X X X X * X X X % % % & X X % % X X % % % . . X . X o X Q C % * X X X X . % X % % X % % & X X % % % % % % % X % X X . . S ",
"F . t 2 2 5 < 2 e e 2 5 5 r 2 2 2 e 2 2 5 5 2 < r * y e r 2 . Q F X e e 5 3 2 y 4 3 4 4 5 5 2 3 e 5 5 5 4 5 3 4 2 4 4 < r 3 . K ",
"C X r ; : : : : 2 * : 2 : 2 1 < 1 = 1 = 2 : 2 3 = = : 2 3 r X Q F X p 3 3 6 3 7 8 7 8 8 8 3 7 3 8 7 3 3 7 3 7 7 7 3 8 3 8 r X K ",
"C X e ; = 3 7 : : = 3 > 3 : : 3 : : : 3 7 3 7 7 7 u : * * 2 . Q F X 5 < 8 7 3 7 7 7 6 6 7 7 7 7 7 7 7 8 8 8 7 7 6 7 7 8 8 2 X H ",
"C X 2 : 3 : 7 : : : 7 7 7 : = : 7 : 7 > : : : : 8 3 7 2 3 e X ^ V % r 5 8 7 7 8 7 8 7 8 7 7 8 7 7 7 8 8 8 8 7 7 8 8 1 8 7 e X D ",
"F X e : 1 : 1 3 = : > 3 7 3 : : : 3 3 3 7 : 3 : 3 = 1 ; 3 e X ~ D X 5 * 1 7 5 8 7 7 7 8 7 7 8 7 7 8 8 7 8 7 8 7 4 8 3 3 3 2 * Q ",
"C X 2 2 1 3 * 3 3 3 2 2 ; < 2 = 2 ; : ; < : 2 * : : : 2 : < X P D % 3 3 1 7 3 3 3 1 1 1 7 1 8 3 7 8 1 3 7 6 7 1 6 8 3 = 7 t X Q ",
"D . 2 e e 2 2 0 3 2 2 < r 2 2 e 2 2 ; e * * e ; 2 r 2 * 2 2 X V N . e r 2 r y 2 e e e < 5 2 2 2 r 2 + 3 4 2 e e 1 y 5 : 5 y . C ",
"! X X X X X X % X % X X & % & X X o O 2 y e * o o % X X X * % C C X X X * X . X % X X * X X - % X & o & X X & X & X X X X X . K ",
"O.Q ^ ^ / / / ( ( ( Q ~ ^ ` ~ _ ` ^ ` ^ ^ ~ / ` ^ Q / ^ ` ` ^ }  ./ ^ P ` ] ` ^ ~ Q ) ' { o.) ` X.^ _ ' ^ ) Q Q ( E ~ ~ / ^ ~ ..",
"c l l c m B m l v v l v l c s E / a l a t # s k l l l c l x z $ v m m c m m n m l c N l N m # ~ / s f j c n v v N c c c n C C c ",
"X % % % X X X X % % X % X O . D P X * - & - - X & % % % % % & - % & X & % X X & % % X % X % X Z M X * X X % X X % % X X % X X X ",
"* e 2 < 5 4 1 2 5 5 e 1 ; e X K E X e 2 r ; : : : 2 : : r : : 3 : r r r : 2 0 - r : r : ; r X S V X r 2 5 3 5 ; r 3 < 2 r r 2 2 ",
"3 y r 3 2 3 3 < : : 3 3 < 4 % D Q X e 2 u r , > : e q 0 r 0 0 : > 2 : q 3 3 u 8 : q u : 2 y X T H X 2 < 3 1 3 3 4 2 3 2 1 3 3 3 ",
"7 1 7 7 7 1 6 3 3 8 3 r 2 2 % S ~ % u * > : u 3 q r , i u w > q w 0 u , q > > > u q : > 2 : % T S % r 2 3 3 3 7 3 , : 7 8 3 1 3 ",
"7 8 = 3 3 = 7 1 3 6 3 3 2 < % S E & 2 0 > q > q : q u > w u e > u r : q u : u u > > q : 0 r X H S % 2 5 1 3 3 3 7 7 : 7 7 1 5 : ",
"= = : 2 3 3 8 3 1 3 3 = < e % b H % 2 : : : q u q > r 0 > : : w , r q q > u w u : 0 r : r 2 % / S % 2 2 2 < 3 3 2 * 5 2 3 : 3 3 ",
"2 2 < 2 2 5 * 2 + 2 y 1 2 ; X C H X 2 r r 0 u : r : 2 r 0 u e : : r : : : ; * r r : r 0 r e X H N X e 2 < : r 2 5 * e 5 2 2 * 1 ",
"* X o % & X O % * % X & * o . v I X X X X X % % % X & % & % % * X X % & * ; % X % % - % % * % I K . < % X % X X % % % % X % % * ",
"s d t s d l $ h $ c n x g f n /  .v N S m N m c h j x k l x j g l m z t d d t j l l x l l l a / ) @ s d x x z m c v V c N l j l ",
"+.{ Q ^ ] ` E ] ( [ ` ( ^ ^ (  .` ~ ^ ` ^ ( ( ^ ) / ^ Y ` ] / .. .` ] ) { ) / ' ^ / ^ ^ ] ^ / ` _ ~ ^ ^ X.) / ] ]  .] ( ` ^ ~ ..",
"! . 2 @ 2 O @ * 2 + o * o % % X X X & X X X X X < o X * % X . P P . ; e e < 2 X X * % . & X * X X * * % * % 1 : & X X & X * o C ",
"D X 5 e * 3 2 7 3 < 2 3 < 4 4 1 r y e + y 2 2 y * 5 2 e 2 y . C H . r 2 ; : 2 r 1 2 1 y : 2 1 3 8 1 e 2 2 2 y < 2 + e r e 2 X C ",
"S % 2 4 8 4 4 1 1 4 5 5 1 < 4 1 5 4 3 4 4 3 3 4 1 8 1 2 3 4 X H F X r 7 : 7 3 1 7 7 7 8 3 3 7 7 8 6 6 7 7 1 7 7 7 2 7 7 7 5 X C ",
"K % 2 1 8 5 5 8 8 8 8 8 8 5 8 8 8 8 8 7 8 8 8 8 5 5 8 5 3 2 X Q ^ X < 7 8 3 7 8 8 8 8 u 7 8 8 i 7 8 7 8 6 8 8 7 u 8 8 6 1 3 * C ",
"I X d p 8 8 5 8 5 8 8 5 8 8 8 7 1 8 8 7 3 8 8 7 8 1 8 5 8 y . F Q X y 3 8 6 8 8 8 8 7 7 7 8 8 7 7 8 8 8 8 8 8 8 8 8 i 8 p 3 % m ",
"~ X 2 3 5 5 5 8 8 8 6 8 8 5 8 8 5 5 8 8 8 8 7 8 8 8 8 5 3 u X K Q X 5 3 8 8 8 8 8 8 8 7 7 8 8 8 8 6 8 8 6 8 8 8 8 8 7 7 3 r % C ",
"P o e 1 5 8 3 3 5 5 3 4 5 3 5 5 5 1 4 5 8 5 5 3 4 8 3 4 3 p X F K X p u 8 7 7 7 7 7 7 8 8 8 3 8 8 8 p 8 7 8 3 3 8 y 8 3 3 y X m ",
"!   e r 2 r 3 y 4 4 t 4 4 4 e y 5 4 2 y y 2 5 4 4 4 1 4 y y X F C o e 2 5 r y u 2 5 2 r r 3 r 5 4 5 y y y 3 4 r 8 p 3 3 r y X D ",
"I . X % . X X X % % % % % % % % % % % X % % X % X X X o . . X V K X . X o X X X % X % % % % % X % X % % X X % % % X % X X . % Z ",
"} / P P ~ F H H F F D D D D S N S D S C S H H H P B D D K F C W | K P K P P P P ~ H H P H H H S F ^ H D G H ^ Q ! H F P ( / ! } ",
"C S D V C D F Q Q F D H ! H F } | H K K H K F F P H ~ ) ~ P Q H D D F P H H D S S V F V V D K W | K Q Q S F P C D V N V D F V V ",
"X X X X X X X X X . X . X . . P K . X % . % X X X X X X X X X X % X % X % X % % % % % X X . X V H . . X X X . . X X X X X X X X ",
"2 e 2 e 2 e e 2 2 < e y e y . Q I . e u e 0 r r r r r 9 r r r r r r e r r r e r : r r r u r X K P X e 2 e e 2 r 2 e 2 2 e 2 2 e ",
"5 * 2 : 2 < 2 < 3 r : * ; r X K K . r : r u 0 u 0 r r : : 0 0 r : 0 0 0 : 0 0 3 : 0 > : r r X D K . r ; : r 3 : ; < ; 2 2 2 2 * ",
"2 3 : 1 1 : < : * 2 1 r 2 y X F P X e ; r r : r q u u u u u u r q r 0 q 0 u > u q 0 0 0 ; e X H ~ . 2 * 2 * 2 1 : 1 3 : 3 3 1 1 ",
"> 3 3 7 > 7 3 3 3 = : < * e . H D X y q q > 0 q q u w q w u q w 0 q u 0 q 0 q r u r u q r 0 % K C X e 5 < 2 3 : 3 : 7 3 : > : 7 ",
"< : : : 2 2 1 < 2 < 5 2 ; 2 . Q H % y 0 - r u : r 0 r 0 0 0 0 0 : q q u u q 0 > q 0 q : ; r % H F . ; 2 3 1 2 < 1 2 e 2 : 3 2 r ",
"e 2 ; < ; r e 2 : 2 ; * ; 2 X H P X + 0 r 0 ; 0 0 : : 0 0 0 : : : r r r : 0 r r 0 ; : u ; e % D F X e ; < : 2 : 2 1 : < 2 2 2 < ",
"2 * O * < ; 2 2 < + r e + : X V C   r 0 0 9 9 0 O 9 ; 9 r : e ; e + 2 r ; ; e r e r 2 : : y . C P   ; O * ; O * 2 e 2 o e < < * ",
"+ e y r o o * ; ; . X % o ; O H ! o X * o o o X ; 9 ; * X X X - % % X % * * - % X % . X ; < . ) ! . e 2 o 2 @ 2 ; o e ; X O e < ",
"O.( o.] / { ` ` ( / ^ ^ / ) Q  .[ T Q ` Q ~ ^ ) ~ [ [ ~ Q ) Q E ( ) ) ) ` ~ ( ` ^ P ` ` P ( ` O.X.Q ) ` T E X.] [ / ) ` / ` ` O.",
"~ t s s l g s g g c m x l k e + d j j j k j j x j d d j d x k T / l v N c f c f l k l k g g d f @ d t s s a s d s l s g g s @ ~ ",
"B X ; X X - - % & X X & & o : - - % & % % X % % - % X - X O X H ! . X o X X * % % X X * X % % % * o o % < * X * % - * * X ; X m ",
"S X e r 0 : 0 r 0 r r u r ; 2 > : : 0 r r r 0 r 9 u r 0 ; r X D H X t y y 2 3 1 2 4 3 4 2 5 4 4 2 4 4 4 < 3 3 4 4 3 2 < 2 t X b ",
"F % r 0 r u : 0 0 p r q : : u w u u : : u u q : r 0 ; u r r % F E X 2 2 3 4 1 4 5 2 1 8 3 1 3 3 7 5 3 3 5 1 8 4 < 4 5 8 5 y % H ",
"H % r 0 u 0 w u 0 i q q i r : 3 q u 0 i i q u u u q u w ; 0 X b / & e 3 3 4 3 4 3 5 6 5 4 5 4 5 5 < 4 1 4 4 1 4 5 3 4 1 2 e X S ",
"H % r r : u i : q q > > q u r q q u u > u w > u u u r q : r & S Q X 5 4 1 4 7 4 5 8 1 5 5 5 5 3 7 4 5 8 5 5 5 1 4 7 2 5 2 5 % D ",
"H X r 2 q 3 0 u 2 u r u q r e > r r 0 : r r u ; r q r > 2 r X D E . t + 1 < 3 2 4 4 3 3 5 3 1 3 5 4 4 1 3 2 4 8 3 1 2 1 4 y X G ",
"~ X e u : r : : u : 2 r : r 2 q u : u u r r : : u 0 : : r r X F ~ X y 4 y 4 2 4 5 1 y 5 2 5 y e 3 5 4 1 y 1 2 e 4 5 e 5 y e X F ",
"K X X * % X % X & % % % & & & & % % & % X % & & X % % % X * X m P . % X & X & X % X X % * o X X % & X % X X % % & % X X X X X F ",
"E v v c C m c m c c V v B D l k l n l n x k m l c m B m c v V E ^ l l v n V D V m c m c l x m l v V m V v v V l v N V D N c c E ",
"~ / ^ ) ] ' ~ ^ P H ~ Q / ( H | +.) ) ` ) T ~ Q Q ! Q Q F H ~ ~ E _ ~ P { ` Q ) Q ~ [ ` Q ` [ ....~ Q ) ^ ^ ) ~ ) Q ^ ) ~ H H _ ",
"% X % % X % % % X X % X X X . K ! . X X X X . % X X X X % X % X X X X X . X X X X X . X * o   ! J . X X X X X X X X X % % % X % ",
"r 2 2 ; e e < r e 2 2 e 2 r . C Q   e 9 9 9 + 9 e 2 e e e ; 2 y 0 + ; ; e ; e r e 9 e r 0 9   Q D   u 2 ; 2 9 2 2 e e ; 2 e e y ",
": - : : : : 3 : : ; 3 : 0 e X H Q X 9 : 0 9 9 9 0 9 9 9 0 9 9 9 0 0 0 0 0 9 0 0 9 ; 0 ; 0 9 . H F . r : - : : : : : : : 3 : : : ",
"7 7 > u > : q > : > q - - r X K D . e 0 9 0 r 0 0 0 0 j 0 0 0 0 e 9 9 0 e r 9 9 0 0 9 9 ; e X Q F . ; 7 : 7 : > : 3 : : 3 > : 3 ",
": > 7 > 7 > > 7 : 3 : r 0 5 X ^ Q X 9 0 : 0 0 0 0 0 u 0 0 0 0 0 0 0 0 0 0 u 9 0 0 0 0 0 0 e . K P * 2 > > : > 7 , , > > > > , > ",
"3 > > > u 7 > 7 i , > , q e X ~ T . e 0 9 0 0 0 0 0 u 0 0 u 0 0 0 0 0 0 0 u 0 0 0 0 0 ; 0 9 X H F X r > : 7 : > 7 : : q > 7 > 7 ",
": 7 : : : : : : * : u r : y X ! T X r 9 9 0 9 0 9 9 9 9 0 0 e 9 9 0 9 0 9 9 9 9 0 0 0 9 0 9 X D ! . r - : : : : : : : : : : : : ",
"2 r r 2 2 2 r r y 2 r 2 2 r X F T . e e e e e 9 9 9 9 9 e r e e e e e 9 9 d 9 9 9 y e e ; @ . F Q   e r y 5 2 : u 2 3 r 2 2 r 2 ",
"X X & % X % % % % X X X . . . H C . . X . X . X o O O - % X X X X X X . o X o X X X X . X . X C P X X X X X X X % X % X X X & X ",
"F S H P Q ~ H S Q H D C ! Q Z | [ B C K T ^ Q F J V V V V V V F D C T C J C F F C m F C Q S m _ _ m V F J D C C C V V C C C F S "
};
